<svg width="150" height="150" viewBox="0 0 150 150" fill="none" xmlns="http://www.w3.org/2000/svg">
<rect width="150" height="150" rx="15" fill="#00A6BD"/>
<path d="M36.5 92.5859H65.1719V102H21.8516V95.125L49.9766 54.6172H21.8906V45.125H64.5469V51.8438L36.5 92.5859ZM83.7656 102H72.4375V59.7344H83.7656V102ZM71.7734 48.7969C71.7734 47.1042 72.3333 45.7109 73.4531 44.6172C74.599 43.5234 76.1484 42.9766 78.1016 42.9766C80.0286 42.9766 81.5651 43.5234 82.7109 44.6172C83.8568 45.7109 84.4297 47.1042 84.4297 48.7969C84.4297 50.5156 83.8438 51.9219 82.6719 53.0156C81.526 54.1094 80.0026 54.6562 78.1016 54.6562C76.2005 54.6562 74.6641 54.1094 73.4922 53.0156C72.3464 51.9219 71.7734 50.5156 71.7734 48.7969ZM108.453 85.0469L104.391 89.1094V102H93.1016V42H104.391V75.2422L106.578 72.4297L117.398 59.7344H130.953L115.68 77.3516L132.281 102H119.312L108.453 85.0469Z" fill="#F8EFEF"/>
<line x1="61.6488" y1="36.3997" x2="88.5643" y2="59.0614" stroke="#00A6BD" stroke-width="1.5"/>
</svg>
